<svg width="24" height="24" viewBox="0 0 24 24" fill="none" xmlns="http://www.w3.org/2000/svg">
<path d="M12 8V14M9 11H15M3 10.4C3 8.15979 3 7.03969 3.43597 6.18404C3.81947 5.43139 4.43139 4.81947 5.18404 4.43597C6.03969 4 7.15979 4 9.4 4H14.6C16.8402 4 17.9603 4 18.816 4.43597C19.5686 4.81947 20.1805 5.43139 20.564 6.18404C21 7.03969 21 8.15979 21 10.4V11.6C21 13.8402 21 14.9603 20.564 15.816C20.1805 16.5686 19.5686 17.1805 18.816 17.564C17.9603 18 16.8402 18 14.6 18H7.41421C7.149 18 6.89464 18.1054 6.70711 18.2929L4.70711 20.2929C4.07714 20.9229 3 20.4767 3 19.5858V18V13V10.4Z" stroke="#7047EB" stroke-width="1.5" stroke-linecap="round" stroke-linejoin="round"/>
</svg>
