<svg width="40" height="40" viewBox="0 0 40 40" fill="none" xmlns="http://www.w3.org/2000/svg">
<g id="Frame 1000004038">
<path d="M0 8C0 3.58172 3.58172 0 8 0H32C36.4183 0 40 3.58172 40 8V32C40 36.4183 36.4183 40 32 40H8C3.58172 40 0 36.4183 0 32V8Z" fill="#B30B00"/>
<path id="Vector" d="M9.59363 32.0052C10.4552 32.0052 11.9227 31.4216 14.7414 26.4296C16.3658 25.6844 18.1486 25.0168 19.9111 24.4943C21.1919 24.115 22.4738 23.8168 23.7263 23.6079C25.7913 24.8757 28.191 25.6873 29.8994 25.6873C31.7883 25.6873 31.9833 24.6185 31.9982 24.2913C32.0188 23.8429 31.859 23.4279 31.5363 23.0902C30.8513 22.373 29.4548 22.0094 27.386 22.0094C26.3565 22.0094 25.2189 22.1023 24.001 22.2852C22.7688 21.4723 21.7509 20.5142 21.0481 19.5046C20.3877 18.557 19.8017 17.5202 19.3037 16.4197C20.6523 12.4692 20.9148 9.87454 20.0836 8.70602C19.7548 8.24432 19.2677 8 18.6745 8C18.0123 8 17.4708 8.29286 17.1089 8.84685C16.034 10.492 16.8691 13.9274 17.9472 16.4728C17.4449 17.8909 16.8181 19.4193 16.1276 20.9095C15.3488 22.5906 14.5787 24.1192 13.8378 25.4569C11.7213 26.4584 8.34643 28.3207 8.02609 30.1328C7.93354 30.658 8.08824 31.1394 8.47366 31.5248C8.78786 31.839 9.17514 32.0052 9.59363 32.0052ZM27.3858 23.2729C29.7775 23.2729 30.4678 23.8008 30.6225 23.9627C30.7284 24.0734 30.7393 24.1619 30.7348 24.2483C30.7108 24.2857 30.4992 24.4236 29.8991 24.4236C28.9613 24.4236 27.4786 24.0808 25.8828 23.3364C26.4077 23.2943 26.9097 23.2729 27.3858 23.2729ZM18.1667 9.53793C18.2923 9.34563 18.4444 9.26347 18.6745 9.26347C18.8861 9.26347 18.9791 9.33336 19.0538 9.43818C19.4243 9.95909 19.4491 11.5669 18.5703 14.558C17.7578 12.1217 17.7167 10.2264 18.1667 9.53793ZM17.274 21.4405C17.7826 20.3427 18.2579 19.2235 18.6764 18.1401L18.6932 18.1777L18.7199 18.1006C19.1125 18.8453 19.5443 19.5564 20.0111 20.2267C20.5875 21.0546 21.3445 21.847 22.2388 22.564L22.1121 22.5837L22.1662 22.6184C21.2999 22.8019 20.4253 23.0243 19.5523 23.2831C18.2771 23.661 16.9907 24.1128 15.7571 24.6145L15.7969 24.5433L15.7467 24.5668C16.2489 23.5965 16.76 22.5506 17.274 21.4405ZM9.27036 30.3526C9.37492 29.761 10.4586 28.709 12.6367 27.4914C10.6861 30.5628 9.77741 30.7417 9.59363 30.7417C9.53309 30.7417 9.46374 30.7284 9.36692 30.6319C9.26343 30.5278 9.25303 30.451 9.27036 30.3526Z" fill="white"/>
</g>
</svg>
