<svg width="48" height="48" viewBox="0 0 48 48" fill="none" xmlns="http://www.w3.org/2000/svg">
<g clip-path="url(#clip0_265_34596)">
<path d="M12.75 22.6875C5.77134 22.6875 0.09375 28.3651 0.09375 35.3438C0.09375 42.3224 5.77134 48 12.75 48C19.7287 48 25.4062 42.3224 25.4062 35.3438C25.4062 28.3651 19.7287 22.6875 12.75 22.6875Z" fill="#D1D1DB"/>
<path d="M37.125 12.1875C36.3484 12.1875 35.7188 11.5579 35.7188 10.7812V0H15.5625C13.2363 0 11.3438 1.89253 11.3438 4.21875V19.9396C11.8071 19.8976 12.2759 19.875 12.75 19.875C17.5433 19.875 21.8341 22.0665 24.6737 25.5H39.9375C40.7141 25.5 41.3438 26.1296 41.3438 26.9062C41.3438 27.6829 40.7141 28.3125 39.9375 28.3125H26.5264C27.4054 30.0278 27.9722 31.928 28.1542 33.9375H39.9375C40.7141 33.9375 41.3438 34.5671 41.3438 35.3438C41.3438 36.1204 40.7141 36.75 39.9375 36.75H28.1542C27.7336 41.3943 25.2522 45.4524 21.6336 48H43.6875C46.0137 48 47.9062 46.1075 47.9062 43.7812V12.1875H37.125ZM39.9375 19.875H19.3125C18.5359 19.875 17.9062 19.2454 17.9062 18.4688C17.9062 17.6921 18.5359 17.0625 19.3125 17.0625H39.9375C40.7141 17.0625 41.3438 17.6921 41.3438 18.4688C41.3438 19.2454 40.7141 19.875 39.9375 19.875Z" fill="#D1D1DB"/>
<path d="M38.5312 0.824219V9.37581H47.0823L38.5312 0.824219Z" fill="#D1D1DB"/>
<g clip-path="url(#clip1_265_34596)">
<path d="M16.0682 39.1035C15.198 39.1027 14.492 39.8074 14.4911 40.6775C14.4902 41.5477 15.195 42.2537 16.0651 42.2546C16.9352 42.2554 17.6413 41.5507 17.6422 40.6806C17.6422 40.6801 17.6422 40.6796 17.6422 40.6791C17.6413 39.8099 16.9374 39.1052 16.0682 39.1035Z" fill="white"/>
<path d="M18.8625 31.5585C18.8248 31.5512 18.7865 31.5475 18.7481 31.5474H9.15512L9.00319 30.531C8.90853 29.856 8.33112 29.3537 7.64947 29.3535H6.41425C6.0786 29.3535 5.80652 29.6256 5.80652 29.9612C5.80652 30.2969 6.0786 30.569 6.41425 30.569H7.65099C7.72826 30.5684 7.79366 30.626 7.80292 30.7027L8.73882 37.1173C8.86713 37.9324 9.56825 38.5337 10.3934 38.5363H16.7153C17.5097 38.5374 18.195 37.979 18.3546 37.2008L19.3437 32.2706C19.4075 31.9411 19.1921 31.6223 18.8625 31.5585Z" fill="white"/>
<path d="M12.2085 40.616C12.1715 39.7713 11.4745 39.1064 10.629 39.1094C9.75958 39.1445 9.08324 39.8778 9.11837 40.7473C9.15208 41.5815 9.83071 42.2446 10.6655 42.259H10.7035C11.5728 42.2209 12.2466 41.4853 12.2085 40.616Z" fill="white"/>
</g>
</g>
<defs>
<clipPath id="clip0_265_34596">
<rect width="48" height="48" fill="white"/>
</clipPath>
<clipPath id="clip1_265_34596">
<rect width="13.5484" height="13.5484" fill="white" transform="translate(5.8064 29.0332)"/>
</clipPath>
</defs>
</svg>
