<svg width="20" height="20" viewBox="0 0 20 20" fill="none" xmlns="http://www.w3.org/2000/svg">
<path fill-rule="evenodd" clip-rule="evenodd" d="M11.91 10.9353C11.6072 11.059 11.4138 11.5331 11.2175 11.7753C11.1169 11.8993 10.9969 11.9187 10.8422 11.8565C9.70567 11.4037 8.83442 10.6453 8.20724 9.59933C8.10099 9.43715 8.12005 9.30902 8.24818 9.1584C8.43755 8.93528 8.67567 8.68184 8.72692 8.38122C8.84067 7.71622 7.9713 5.65342 6.82318 6.5881C3.51945 9.28027 12.3344 16.4205 13.9253 12.5587C14.3753 11.464 12.4119 10.7296 11.91 10.9353ZM10 16.6024C8.83161 16.6024 7.68193 16.2918 6.67537 15.7037C6.51381 15.609 6.3185 15.584 6.13787 15.6331L3.9507 16.2334L4.71257 14.5549C4.81632 14.3265 4.78976 14.0606 4.64319 13.8574C3.8282 12.7278 3.39726 11.394 3.39726 9.99996C3.39726 6.35904 6.35912 3.39718 10 3.39718C13.641 3.39718 16.6025 6.35904 16.6025 9.99996C16.6025 13.6406 13.6406 16.6024 10 16.6024ZM10 2C5.58881 2 2.00008 5.58873 2.00008 9.99996C2.00008 11.5518 2.44071 13.0421 3.27789 14.3356L2.06258 17.0121C1.9504 17.2593 1.99133 17.5487 2.16696 17.7546C2.30196 17.9124 2.49727 17.9999 2.69883 17.9999C3.14945 17.9999 5.60663 17.2277 6.23194 17.0562C7.38787 17.6746 8.68442 17.9999 10 17.9999C14.411 17.9999 18 14.4109 18 9.99996C18 5.58873 14.411 2 10 2Z" fill="#8A8AA3"/>
</svg>
