<svg width="80" height="80" viewBox="0 0 80 80" fill="none" xmlns="http://www.w3.org/2000/svg">
<g id="fi_6598519">
<g id="_x32_15">
<path id="Vector" d="M25.2948 45.4114C25.6477 45.0585 25.6477 44.4702 25.2948 44.1173L22.4713 41.2938L26.1183 37.6467C26.4713 37.2938 26.4713 36.7055 26.1183 36.3526C25.7654 35.9997 25.1772 35.9997 24.8242 36.3526L21.1772 39.9997L17.883 36.7055C17.5301 36.3526 16.9419 36.3526 16.5889 36.7055C16.236 37.0585 16.236 37.6467 16.5889 37.9997L19.883 41.2938L16.5889 44.5879C16.236 44.9408 16.236 45.5291 16.5889 45.882C16.9419 46.235 17.5301 46.235 17.883 45.882L21.1772 42.5879L24.0007 45.4114C24.4713 45.7644 24.9419 45.7644 25.2948 45.4114Z" fill="#55556D"/>
<path id="Vector_2" d="M24.943 57.0581C24.59 57.411 24.59 57.9992 25.0606 58.3522C25.4136 58.7051 26.0018 58.7051 26.3548 58.2345C32.1195 51.8816 42.0018 51.9992 47.6489 57.8816C48.0018 58.2345 48.59 58.2345 48.943 57.8816C49.2959 57.5287 49.2959 56.9404 48.943 56.5875C42.4724 49.9992 31.4136 49.8816 24.943 57.0581Z" fill="#55556D"/>
<path id="Vector_3" d="M68.9421 64.118L72.0009 32.9415C72.1186 31.6474 71.648 30.3533 70.8244 29.4121C70.0009 28.4709 68.7068 27.8827 67.4127 27.8827V19.7651C67.4127 16.7062 65.0597 14.2356 62.0009 14.118L12.4715 13.4121C9.29503 13.4121 6.94209 15.8827 6.82444 18.8239V20.9415C5.41268 21.2945 4.35386 22.2356 3.76562 23.6474C3.05974 24.4709 2.58915 25.5298 2.35386 26.3533C1.76562 28.4709 1.88327 30.7062 2.11856 32.9415C3.05974 43.2945 4.00091 53.5298 4.82444 63.8827C5.17738 68.3533 6.35386 70.2356 12.8244 70.5886C31.295 71.5298 49.7656 71.4121 68.2362 71.0592C68.9421 71.0592 69.7656 71.0592 70.3539 70.7062C71.0597 70.3533 71.5303 69.6474 71.4127 68.9415C71.0597 67.4121 68.4715 67.6474 66.9421 67.5298C68.0009 66.8239 68.7068 65.6474 68.9421 64.118ZM12.4715 15.2945L62.0009 16.0003C64.0009 16.0003 65.7656 17.7651 65.648 19.7651V28.0003H48.3539C47.0597 28.0003 45.7656 27.4121 44.8244 26.4709L42.1186 23.4121C40.7068 21.8827 38.7068 20.9415 36.5891 20.9415H8.58915V19.0592C8.58915 16.8239 10.3539 15.1768 12.4715 15.2945ZM64.3539 66.5886H11.295C9.88327 66.5886 8.58915 65.5298 8.4715 64.0003L5.05974 25.6474C4.94209 24.0003 6.23621 22.5886 7.88327 22.5886H36.5891C38.2362 22.5886 39.7656 23.2945 40.8244 24.4709L43.5303 27.5298C44.7068 28.9415 46.4715 29.7651 48.3539 29.7651H67.4127C68.2362 29.7651 68.9421 30.118 69.5303 30.7062C70.1186 31.2945 70.3539 32.118 70.2362 32.8239L67.1774 64.0003C67.0597 65.4121 65.7656 66.5886 64.3539 66.5886Z" fill="#55556D"/>
<path id="Vector_4" d="M52.0006 39.765L54.5888 37.1768C54.9418 36.8239 54.9418 36.2356 54.5888 35.8827C54.2359 35.5298 53.6476 35.5298 53.2947 35.8827L50.7065 38.4709L47.4123 35.1768C47.0594 34.8239 46.4712 34.8239 46.1182 35.1768C45.7653 35.5298 45.7653 36.118 46.1182 36.4709L49.4123 39.765L46.3535 42.8239C46.0006 43.1768 46.0006 43.765 46.3535 44.118C46.7065 44.4709 47.2947 44.4709 47.6476 44.118L50.7065 41.0592L54.0006 44.3533C54.3535 44.7062 54.9417 44.7062 55.2947 44.3533C55.6476 44.0003 55.6476 43.4121 55.2947 43.0592L52.0006 39.765Z" fill="#55556D"/>
<path id="Vector_5" d="M68.0006 8.94083C66.9417 10.3526 66.1182 11.7644 65.53 13.4114C65.4123 13.882 65.6476 14.3526 66.1182 14.4702C66.5888 14.5879 67.0594 14.3526 67.177 13.882C67.6476 12.4702 68.3535 11.0585 69.2947 9.88201C69.6476 9.52907 69.53 8.94083 69.177 8.58789C68.8241 8.58789 68.3535 8.58789 68.0006 8.94083Z" fill="#55556D"/>
<path id="Vector_6" d="M75.5304 12.3532C75.2951 12.0003 74.7069 11.765 74.3539 12.118L68.8245 15.6474C68.4716 15.8827 68.3539 16.4709 68.5892 16.8238C68.8245 17.1768 69.4127 17.4121 69.7657 17.0591L75.2951 13.5297C75.648 13.2944 75.7657 12.7062 75.5304 12.3532Z" fill="#55556D"/>
<path id="Vector_7" d="M77.178 18.7051L70.9427 19.1757C70.4721 19.1757 70.1191 19.6463 70.1191 20.1168C70.1191 20.5874 70.5897 20.9404 71.0603 20.9404L77.2956 20.4698C77.7662 20.4698 78.1191 19.9992 78.1191 19.5286C78.0015 19.058 77.6486 18.7051 77.178 18.7051Z" fill="#55556D"/>
</g>
</g>
</svg>
