<?xml version="1.0" encoding="UTF-8"?>
<svg version="1.1" xmlns="http://www.w3.org/2000/svg" width="50" height="50">
<path d="M0 0 C5.28 0 10.56 0 16 0 C16 0.66 16 1.32 16 2 C19.63 2 23.26 2 27 2 C27 16.85 27 31.7 27 47 C14.46 47 1.92 47 -11 47 C-11 32.15 -11 17.3 -11 2 C-7.37 2 -3.74 2 0 2 C0 1.34 0 0.68 0 0 Z M2 2 C2 3.65 2 5.3 2 7 C5.96 7 9.92 7 14 7 C14 5.35 14 3.7 14 2 C10.04 2 6.08 2 2 2 Z M-9 5 C-9.10106874 7.87264056 -9.13969672 10.72073628 -9.1328125 13.59375 C-9.13376923 14.45560913 -9.13472595 15.31746826 -9.13571167 16.20544434 C-9.1363935 18.03133212 -9.13453904 19.85722231 -9.13037109 21.68310547 C-9.12502286 24.48801078 -9.13031599 27.29275595 -9.13671875 30.09765625 C-9.13605797 31.86718786 -9.13477681 33.63671936 -9.1328125 35.40625 C-9.13483673 36.25102905 -9.13686096 37.09580811 -9.13894653 37.96618652 C-9.49924511 41.7918686 -9.49924511 41.7918686 -8 45 C-5.63601532 45.1007812 -3.30188689 45.13973215 -0.9375 45.1328125 C-0.23101318 45.13376923 0.47547363 45.13472595 1.20336914 45.13571167 C2.69970793 45.13639333 4.19604967 45.13454005 5.69238281 45.13037109 C7.99030157 45.12502257 10.28802486 45.13031651 12.5859375 45.13671875 C14.03645877 45.13605797 15.48697991 45.1347768 16.9375 45.1328125 C17.6291626 45.13483673 18.3208252 45.13686096 19.03344727 45.13894653 C22.29735638 45.40230733 22.29735638 45.40230733 25 44 C25.10106874 41.12735944 25.13969672 38.27926372 25.1328125 35.40625 C25.13376923 34.54439087 25.13472595 33.68253174 25.13571167 32.79455566 C25.1363935 30.96866788 25.13453904 29.14277769 25.13037109 27.31689453 C25.12502286 24.51198922 25.13031599 21.70724405 25.13671875 18.90234375 C25.13605797 17.13281214 25.13477681 15.36328064 25.1328125 13.59375 C25.13483673 12.74897095 25.13686096 11.90419189 25.13894653 11.03381348 C25.49924511 7.2081314 25.49924511 7.2081314 24 4 C21.32941149 3.85884839 18.67567762 3.95752893 16 4 C16 4.66 16 5.32 16 6 C18.31 6 20.62 6 23 6 C23 18.21 23 30.42 23 43 C13.1 43 3.2 43 -7 43 C-7 30.79 -7 18.58 -7 6 C-4.69 6 -2.38 6 0 6 C0 5.34 0 4.68 0 4 C-4.79970742 3.47166284 -4.79970742 3.47166284 -9 5 Z M-5 8 C-5 18.89 -5 29.78 -5 41 C3.58 41 12.16 41 21 41 C21 30.11 21 19.22 21 8 C12.42 8 3.84 8 -5 8 Z " fill="#FFFFFF" transform="translate(17,1)"/>
<path d="M0 0 C1.32 0 2.64 0 4 0 C4 4 4 4 1.5625 6.625 C0.716875 7.40875 -0.12875 8.1925 -1 9 C-1.33 9.66 -1.66 10.32 -2 11 C-3.32 11 -4.64 11 -6 11 C-7.75 9 -7.75 9 -9 7 C-12.12197478 8.3089572 -12.12197478 8.3089572 -14 11 C-15.32 11 -16.64 11 -18 11 C-18 9.68 -18 8.36 -18 7 C-15.5625 4.875 -15.5625 4.875 -13 3 C-12.67 2.34 -12.34 1.68 -12 1 C-10.68 1 -9.36 1 -8 1 C-6.25 3 -6.25 3 -5 5 C-1.88667752 4.33131686 -1.88667752 4.33131686 -0.8125 1.9375 C-0.544375 1.298125 -0.27625 0.65875 0 0 Z " fill="#FFFFFF" transform="translate(32,28)"/>
<path d="M0 0 C5.94 0 11.88 0 18 0 C18 0.66 18 1.32 18 2 C12.06 2 6.12 2 0 2 C0 1.34 0 0.68 0 0 Z " fill="#FFFFFF" transform="translate(16,18)"/>
<path d="M0 0 C5.94 0 11.88 0 18 0 C18 0.66 18 1.32 18 2 C12.06 2 6.12 2 0 2 C0 1.34 0 0.68 0 0 Z " fill="#FFFFFF" transform="translate(16,13)"/>
<path d="M0 0 C2.64 0 5.28 0 8 0 C8 0.66 8 1.32 8 2 C5.36 2 2.72 2 0 2 C0 1.34 0 0.68 0 0 Z " fill="#FFFFFF" transform="translate(16,23)"/>
</svg>
