<?xml version="1.0" encoding="UTF-8"?>
<svg version="1.1" xmlns="http://www.w3.org/2000/svg" width="48" height="48">
<path d="M0 0 C4.40608743 2.16298837 7.1987497 4.39680479 9 9 C9.8543843 14.496539 9.58426208 18.69026798 6.5625 23.4375 C6.11003906 24.05496094 5.65757813 24.67242188 5.19140625 25.30859375 C3.80553123 27.10376286 3.80553123 27.10376286 3 30 C-2.28 30 -7.56 30 -13 30 C-13.99 28.02 -14.98 26.04 -16 24 C-16.556875 23.278125 -17.11375 22.55625 -17.6875 21.8125 C-19.79101889 17.30495952 -19.77211402 12.87575704 -19 8 C-15.08786328 0.14467785 -7.9820039 -1.02139386 0 0 Z " fill="#FFFFFF" transform="translate(29,4)"/>
<path d="M0 0 C4.62 0 9.24 0 14 0 C13.34 2.31 12.68 4.62 12 7 C8.7 7 5.4 7 2 7 C1.34 4.69 0.68 2.38 0 0 Z " fill="#FFFFFF" transform="translate(17,37)"/>
<path d="M0 0 C1.32 0.66 2.64 1.32 4 2 C3.67 3.32 3.34 4.64 3 6 C1.68 5.34 0.36 4.68 -1 4 C-0.67 2.68 -0.34 1.36 0 0 Z " fill="#FFFFFF" transform="translate(39,26)"/>
<path d="M0 0 C0.99 0.33 1.98 0.66 3 1 C2.67 2.32 2.34 3.64 2 5 C0.68 5 -0.64 5 -2 5 C-1.125 1.125 -1.125 1.125 0 0 Z " fill="#FFFFFF" transform="translate(7,26)"/>
<path d="M0 0 C0.99 0.33 1.98 0.66 3 1 C2.67 2.32 2.34 3.64 2 5 C0.68 5 -0.64 5 -2 5 C-1.125 1.125 -1.125 1.125 0 0 Z " fill="#FFFFFF" transform="translate(40,1)"/>
<path d="M0 0 C1.32 0.66 2.64 1.32 4 2 C3.67 3.32 3.34 4.64 3 6 C1.68 5.34 0.36 4.68 -1 4 C-0.67 2.68 -0.34 1.36 0 0 Z " fill="#FFFFFF" transform="translate(6,1)"/>
<path d="M0 0 C1.98 0 3.96 0 6 0 C6 0.99 6 1.98 6 3 C4.02 3 2.04 3 0 3 C0 2.01 0 1.02 0 0 Z " fill="#FFFFFF" transform="translate(42,15)"/>
<path d="M0 0 C1.98 0 3.96 0 6 0 C6 0.99 6 1.98 6 3 C4.02 3 2.04 3 0 3 C0 2.01 0 1.02 0 0 Z " fill="#FFFFFF" transform="translate(0,15)"/>
</svg>
